Coordinates
version=1
nRows=32
nColumns=12
inDegrees=yes

Units are S.I. units (second, meters, Newtons, ...)
Angles are in degrees

endheader
time	SC_y	SC_z	SC_x	AC_y	AC_z	AC_x	GH_y	GH_z	GH_yy	EL_x	PS_y
       0.0              -39.38          32.22          71.15          52.09          9.758          15.32         -48.89          82.79          83.17          19.23          7.179
   0.03844              -39.38          32.22          71.15          52.09          9.756          15.32         -48.89          82.78          83.17          19.24          7.191
   0.07687              -39.38          32.22          71.15          52.09          9.755          15.32         -48.89          82.77          83.16          19.25          7.204
    0.1153              -39.38          32.22          71.14          52.08          9.753          15.32         -48.89          82.75          83.15          19.26          7.217
    0.1537              -39.38          32.22          71.14          52.08          9.752          15.32         -48.89          82.74          83.14          19.28          7.232
    0.1922              -39.38          32.22          71.14          52.08           9.75          15.32         -48.89          82.72          83.13          19.29          7.247
    0.2306              -39.38          32.22          71.14          52.08          9.748          15.32         -48.89          82.71          83.12          19.31          7.264
    0.2691              -39.38          32.22          71.13          52.08          9.746          15.32          -48.9          82.69          83.11          19.33          7.282
    0.3075              -39.38          32.22          71.13          52.08          9.744          15.32          -48.9          82.67           83.1          19.35          7.301
    0.3459              -39.38          32.22          71.13          52.08          9.741          15.32          -48.9          82.65          83.09          19.37          7.321
    0.3844              -39.38          32.22          71.12          52.08          9.739          15.32          -48.9          82.63          83.08          19.39          7.343
    0.4228              -39.38          32.22          71.12          52.08          9.736          15.32         -48.91           82.6          83.06          19.41          7.366
    0.4612              -39.38          32.22          71.12          52.08          9.733          15.32         -48.91          82.58          83.05          19.44          7.392
    0.4997              -39.38          32.22          71.11          52.08           9.73          15.32         -48.91          82.55          83.03          19.46          7.419
    0.5381              -39.38          32.22          71.11          52.08          9.726          15.31         -48.91          82.52          83.01          19.49          7.449
    0.5765              -39.38          32.22           71.1          52.08          9.723          15.31         -48.92          82.49          82.99          19.52          7.481
     0.615              -39.38          32.22           71.1          52.08          9.719          15.31         -48.92          82.45          82.97          19.56          7.516
    0.6534              -39.38          32.22          71.09          52.08          9.714          15.31         -48.93          82.41          82.95           19.6          7.554
    0.6918              -39.38          32.22          71.08          52.07          9.709          15.31         -48.93          82.37          82.93          19.64          7.595
    0.7303              -39.37          32.22          71.08          52.07          9.704          15.31         -48.94          82.33           82.9          19.68          7.641
    0.7687              -39.37          32.22          71.07          52.07          9.698          15.31         -48.94          82.28          82.87          19.73          7.691
    0.8072              -39.37          32.22          71.06          52.07          9.692          15.31         -48.95          82.22          82.84          19.79          7.746
    0.8456              -39.37          32.22          71.05          52.07          9.685           15.3         -48.95          82.16           82.8          19.85          7.806
     0.884              -39.37          32.22          71.04          52.07          9.677           15.3         -48.96          82.09          82.76          19.91          7.874
    0.9225              -39.37          32.22          71.03          52.07          9.668           15.3         -48.97          82.02          82.72          19.99          7.948
    0.9609              -39.37          32.22          71.01          52.06          9.658           15.3         -48.98          81.94          82.67          20.07          8.032
    0.9993              -39.37          32.22           71.0          52.06          9.648          15.29         -48.99          81.84          82.61          20.16          8.125
     1.038              -39.37          32.22          70.98          52.06          9.635          15.29          -49.0          81.74          82.55          20.26          8.231
     1.076              -39.37          32.22          70.96          52.05          9.622          15.29         -49.01          81.62          82.48          20.38          8.349
     1.115              -39.37          32.22          70.94          52.05          9.606          15.28         -49.02          81.48           82.4          20.51          8.484
     1.153              -39.37          32.22          70.91          52.05          9.588          15.28         -49.04          81.33          82.31          20.67          8.638
     1.192              -39.37          32.22          70.89          52.04          9.567          15.27         -49.06          81.15           82.2          20.84          8.815
